<?xml version="1.0" standalone="no"?>
<!DOCTYPE svg PUBLIC "-//W3C//DTD SVG 20010904//EN"
 "http://www.w3.org/TR/2001/REC-SVG-20010904/DTD/svg10.dtd">
<svg version="1.0" xmlns="http://www.w3.org/2000/svg"
 width="2480.000000pt" height="2480.000000pt" viewBox="0 0 2480.000000 2480.000000"
 preserveAspectRatio="xMidYMid meet">

<g transform="translate(0.000000,2480.000000) scale(0.100000,-0.100000)"
fill="#000000" stroke="none">
<path d="M12158 14873 c-59 -62 -58 -117 7 -505 19 -114 35 -211 35 -217 0 -6
14 -11 30 -11 17 0 30 3 30 8 0 4 5 34 10 67 43 246 80 499 80 547 0 53 -3 60
-38 98 -34 35 -44 40 -84 40 -35 0 -49 -5 -70 -27z"/>
<path d="M10780 14535 c0 -37 -1 -36 78 -49 95 -16 214 -111 262 -211 52 -107
50 -44 50 -1608 l0 -1458 -26 -77 c-52 -155 -169 -260 -313 -281 -45 -6 -46
-7 -49 -44 l-3 -37 616 0 616 0 -1 -224 c-1 -141 -6 -244 -14 -278 -36 -156
-146 -267 -285 -287 -45 -6 -46 -7 -46 -41 l0 -35 500 0 500 0 0 35 c0 34 -1
35 -45 41 -143 21 -260 145 -290 312 -6 29 -9 148 -8 263 l3 209 608 3 c334 1
607 5 607 10 0 4 1 166 3 360 1 193 1 352 1 352 -1 0 -30 -39 -65 -87 -190
-262 -455 -447 -744 -519 -132 -33 -393 -54 -405 -33 -16 25 -11 451 5 506 22
75 67 138 122 170 l48 28 375 6 c365 6 378 7 467 32 308 87 541 323 634 642
34 115 34 324 0 440 -70 243 -226 431 -442 535 -149 71 -126 70 -1051 70
l-828 0 0 -30 c0 -26 4 -30 38 -35 135 -23 221 -95 283 -235 l24 -55 0 -1040
0 -1040 -125 1 c-106 1 -132 4 -173 23 -60 28 -117 83 -148 147 l-24 49 0
1560 0 1560 32 68 c59 125 173 219 284 234 54 8 54 8 57 46 l3 37 -565 0 -566
0 0 -35z m2345 -1335 c142 -34 314 -149 410 -275 55 -72 121 -218 139 -307 45
-221 -1 -477 -120 -660 -43 -68 -134 -168 -152 -168 -5 0 -84 109 -177 243
-93 133 -259 373 -370 532 -111 160 -255 366 -319 459 -65 93 -120 175 -123
183 -5 13 38 14 328 10 209 -3 353 -9 384 -17z m-454 -602 c189 -271 405 -581
480 -688 l136 -195 -56 -27 c-102 -49 -188 -59 -472 -56 l-256 3 -49 30 c-55
34 -107 111 -123 179 -8 38 -14 1246 -6 1246 2 0 158 -222 346 -492z"/>
</g>
</svg>
