<?xml version="1.0" standalone="no"?>
<!DOCTYPE svg PUBLIC "-//W3C//DTD SVG 20010904//EN"
 "http://www.w3.org/TR/2001/REC-SVG-20010904/DTD/svg10.dtd">
<svg version="1.0" xmlns="http://www.w3.org/2000/svg"
 width="911.000000pt" height="364.000000pt" viewBox="0 0 911.000000 364.000000"
 preserveAspectRatio="xMidYMid meet">

<g transform="translate(0.000000,364.000000) scale(0.100000,-0.100000)"
fill="#000000" stroke="none">
<path d="M2304 2506 c-49 -22 -74 -61 -74 -119 0 -44 4 -54 34 -82 19 -17 61
-42 94 -54 34 -13 75 -34 93 -47 18 -13 37 -20 42 -17 6 4 8 0 4 -11 -4 -10
-7 -33 -7 -53 0 -50 -45 -93 -98 -93 -56 0 -99 34 -140 108 -19 35 -36 62 -37
60 -7 -7 18 -114 28 -127 21 -26 91 -51 142 -51 59 0 107 25 130 69 18 35 20
71 4 71 -8 0 -8 4 0 14 26 31 -33 89 -125 126 -33 13 -74 34 -91 47 -28 20
-33 30 -33 64 0 31 7 47 29 70 59 58 131 30 192 -75 l30 -51 -6 55 c-7 62 -25
84 -83 100 -49 13 -90 12 -128 -4z"/>
<path d="M5471 2507 c-18 -6 -55 -32 -82 -57 -108 -106 -103 -275 12 -374 52
-44 98 -60 160 -54 92 9 177 91 200 192 40 180 -124 346 -290 293z m119 -12
c34 -10 68 -42 93 -90 32 -58 32 -212 0 -271 -49 -93 -130 -124 -211 -82 -84
43 -123 170 -93 304 15 66 70 132 121 144 35 8 44 7 90 -5z"/>
<path d="M146 2479 c-3 -17 -6 -46 -6 -63 l0 -31 20 40 c22 45 64 75 104 75
l26 0 0 -219 c0 -216 0 -220 -22 -235 -21 -15 -18 -16 52 -15 41 0 68 3 60 6
-37 13 -40 32 -40 250 l0 213 25 0 c44 0 85 -29 106 -73 l19 -42 -2 60 -3 60
-166 3 -166 2 -7 -31z"/>
<path d="M688 2490 c21 -20 22 -28 22 -225 0 -199 0 -204 -22 -219 -21 -15
-18 -16 52 -16 61 1 71 3 55 12 -31 18 -35 28 -35 110 0 113 -6 108 124 108
74 0 116 -4 124 -12 16 -16 15 -168 -1 -189 -7 -9 -19 -18 -27 -22 -8 -3 19
-6 60 -6 70 -1 73 0 52 15 -22 15 -22 20 -22 223 0 205 0 209 23 224 21 15 18
16 -52 16 l-74 1 27 -21 c24 -19 26 -26 26 -104 0 -112 -4 -115 -126 -115
-133 0 -134 1 -134 110 0 84 1 90 26 109 l27 21 -74 0 -73 0 22 -20z"/>
<path d="M1328 2490 c21 -20 22 -28 22 -220 0 -192 -1 -200 -22 -220 l-22 -20
172 0 c172 0 172 0 172 23 0 12 3 40 6 62 l5 40 -20 -37 c-37 -65 -63 -78
-158 -78 l-84 0 3 108 3 107 39 3 c60 5 86 -5 101 -41 14 -31 14 -29 15 53 l0
85 -18 -35 c-17 -34 -18 -35 -77 -35 l-60 0 -3 108 -3 107 80 0 c71 0 83 -3
111 -26 17 -15 37 -41 45 -58 13 -30 13 -30 14 -6 0 14 -2 42 -5 63 l-7 37
-165 0 -166 0 22 -20z"/>
<path d="M2723 2494 l27 -15 0 -152 c0 -139 2 -154 20 -169 18 -16 19 -16 24
15 3 18 7 43 8 57 3 25 4 25 117 28 75 2 118 -1 127 -9 8 -6 14 -30 14 -54 0
-49 7 -59 26 -40 11 10 14 49 14 164 l0 150 26 20 27 21 -74 -1 c-59 0 -70 -2
-52 -11 27 -13 33 -35 33 -125 0 -98 -6 -103 -126 -103 -133 0 -134 1 -134
108 0 92 3 102 35 120 16 9 5 11 -60 11 -77 0 -79 0 -52 -15z"/>
<path d="M3475 2490 c18 -20 18 -23 -51 -228 -59 -176 -73 -209 -94 -219 -23
-12 -19 -13 35 -13 46 1 56 3 43 11 -10 5 -18 18 -18 27 1 24 164 197 178 188
6 -4 21 -34 33 -66 12 -33 26 -60 30 -60 14 0 11 18 -3 23 -10 4 -9 8 2 16 11
8 17 6 22 -9 13 -35 16 -21 4 23 -6 23 -31 105 -57 182 l-45 140 -49 3 -49 3
19 -21z m61 -114 l28 -84 -51 -59 c-64 -73 -111 -118 -118 -112 -5 5 104 339
110 339 2 0 16 -38 31 -84z"/>
<path d="M3907 2498 c29 -14 34 -32 34 -115 0 -56 4 -72 22 -92 21 -22 21 -23
2 -17 -19 5 -20 1 -22 -102 -3 -95 -5 -109 -24 -124 -21 -18 -19 -18 45 -18
l66 0 -20 20 c-12 12 -20 33 -20 54 0 19 -5 38 -10 41 -8 5 -7 11 1 21 10 12
8 18 -7 29 -19 14 -19 14 1 15 l20 1 -20 16 c-16 13 -17 15 -2 10 10 -4 17 -1
17 7 0 10 22 15 78 18 86 5 124 23 148 69 19 37 18 99 -2 127 -30 43 -64 52
-201 51 -99 0 -123 -3 -106 -11z m230 -18 c64 -39 64 -143 0 -185 -31 -20 -87
-30 -121 -21 -26 6 -26 7 -26 116 l0 110 58 0 c39 0 67 -6 89 -20z"/>
<path d="M4415 2498 c11 -6 23 -16 27 -22 4 -6 8 -99 8 -206 0 -107 -4 -200
-8 -206 -4 -6 -16 -16 -27 -22 -15 -9 20 -11 158 -12 l177 0 0 29 c0 16 2 44
6 62 l5 34 -20 -37 c-37 -65 -63 -78 -158 -78 l-84 0 3 108 3 107 39 3 c59 5
82 -4 99 -40 17 -33 17 -33 16 52 0 82 0 84 -14 53 -15 -36 -41 -46 -101 -41
l-39 3 -3 109 -3 108 85 -3 c77 -4 87 -7 115 -33 16 -15 32 -39 36 -53 11 -44
17 -17 10 41 l-7 56 -172 0 c-133 -1 -167 -3 -151 -12z"/>
<path d="M5964 2489 l26 -20 0 -197 c0 -108 -4 -202 -8 -208 -4 -6 -16 -16
-27 -22 -16 -9 -6 -11 54 -12 71 0 73 0 52 18 -20 16 -22 25 -19 112 l3 95 48
3 c53 3 72 -7 90 -48 11 -24 12 -23 15 18 2 23 2 61 0 85 -3 40 -4 41 -15 17
-18 -41 -37 -51 -90 -48 l-48 3 -3 109 -3 108 85 -3 c94 -4 117 -17 143 -78 8
-18 16 -31 18 -29 2 2 1 29 -2 61 l-6 57 -170 0 -170 0 27 -21z"/>
<path d="M6870 2491 c25 -20 25 -21 28 -207 3 -193 -3 -238 -36 -247 -10 -3
-2 -5 16 -6 22 -1 31 3 26 10 -4 7 0 9 12 6 11 -4 33 -9 49 -12 25 -4 26 -4 9
4 -27 12 -37 49 -35 131 1 50 6 69 21 81 18 16 18 16 -1 32 -16 15 -19 31 -19
117 l0 100 65 0 c57 0 68 -3 97 -29 29 -26 33 -36 33 -78 0 -60 -25 -101 -65
-110 -17 -3 -30 -10 -30 -15 0 -14 60 0 90 21 14 9 33 34 44 55 16 32 17 44 7
75 -6 20 -22 48 -37 62 -24 23 -33 24 -162 27 l-137 3 25 -20z"/>
<path d="M7385 2486 c22 -23 23 -29 24 -174 0 -82 6 -163 12 -179 21 -57 83
-102 149 -109 31 -4 33 -2 18 10 -10 7 -18 18 -18 25 0 6 -6 11 -14 11 -21 0
-74 47 -91 81 -8 15 -15 48 -15 73 0 26 -5 46 -12 49 -10 3 -10 7 -1 18 14 18
14 109 -1 128 -8 11 -8 13 0 8 8 -4 13 5 17 26 7 48 0 57 -49 57 l-43 0 24
-24z"/>
<path d="M7468 2503 c6 -2 18 -2 25 0 6 3 1 5 -13 5 -14 0 -19 -2 -12 -5z"/>
<path d="M7704 2489 l27 -22 -4 -156 c-2 -86 -7 -167 -12 -181 -6 -21 -6 -23
6 -12 11 10 15 54 17 182 3 169 3 170 29 190 l26 20 -58 0 -58 0 27 -21z"/>
<path d="M8010 2500 c0 -5 5 -10 11 -10 5 0 7 5 4 10 -3 6 -8 10 -11 10 -2 0
-4 -4 -4 -10z"/>
<path d="M8048 2504 c-3 -5 3 -18 13 -28 22 -22 26 -9 6 19 -8 10 -16 14 -19
9z"/>
<path d="M8288 2493 c22 -15 22 -19 22 -219 0 -120 -4 -204 -9 -204 -6 0 -22
23 -37 50 -21 38 -33 50 -51 50 -12 0 -23 -2 -23 -5 0 -2 14 -34 32 -70 l32
-65 61 0 60 1 -27 17 -28 17 0 198 c0 197 0 198 25 222 l24 25 -52 -1 c-50 0
-51 -1 -29 -16z"/>
<path d="M7998 2275 l3 -203 -27 -21 -27 -21 54 0 c51 0 53 1 31 16 -22 15
-22 20 -22 219 0 112 -3 206 -7 208 -5 3 -7 -86 -5 -198z"/>
<path d="M8050 2430 c0 -5 7 -10 16 -10 9 0 14 -6 11 -13 -4 -12 11 -14 43 -8
3 1 -6 10 -20 21 -27 21 -50 26 -50 10z"/>
<path d="M8816 2411 c-12 -5 -15 -10 -9 -14 6 -4 16 0 23 8 14 17 13 17 -14 6z"/>
<path d="M8090 2365 c0 -5 5 -17 10 -25 5 -8 10 -10 10 -5 0 6 -5 17 -10 25
-5 8 -10 11 -10 5z"/>
<path d="M8130 2365 c0 -5 5 -17 10 -25 5 -8 10 -10 10 -5 0 6 -5 17 -10 25
-5 8 -10 11 -10 5z"/>
<path d="M8170 2261 c0 -5 5 -13 10 -16 6 -3 10 -2 10 4 0 5 -4 13 -10 16 -5
3 -10 2 -10 -4z"/>
<path d="M8711 2263 c-9 -4 20 -38 84 -103 68 -68 96 -103 92 -114 -5 -13 2
-16 46 -16 l52 0 -120 120 c-66 66 -124 120 -130 119 -5 0 -16 -3 -24 -6z"/>
<path d="M8170 2214 c0 -3 7 -13 16 -21 13 -14 17 -14 25 -2 6 10 3 16 -9 21
-22 9 -32 9 -32 2z"/>
<path d="M3073 2133 c-7 -2 -13 -17 -13 -31 0 -32 -8 -45 -35 -60 -16 -9 -7
-11 52 -12 l72 0 -24 25 c-16 15 -25 36 -25 55 0 30 -4 33 -27 23z"/>
<path d="M2761 2123 c4 -20 -24 -72 -44 -81 -18 -9 -7 -11 53 -11 62 0 72 2
59 12 -10 7 -24 29 -32 50 -9 20 -21 37 -26 37 -6 0 -10 -3 -10 -7z"/>
<path d="M8630 2120 c0 -5 -8 -7 -17 -3 -14 4 -15 3 -7 -6 6 -6 18 -9 27 -5
18 7 23 24 7 24 -5 0 -10 -4 -10 -10z"/>
<path d="M8600 2080 c0 -5 5 -10 11 -10 5 0 7 5 4 10 -3 6 -8 10 -11 10 -2 0
-4 -4 -4 -10z"/>
<path d="M8632 2061 c0 -24 3 -28 24 -28 23 0 24 1 9 17 -8 9 -15 22 -15 28 0
26 -17 10 -18 -17z"/>
<path d="M7637 2049 c7 -7 15 -10 18 -7 3 3 -2 9 -12 12 -14 6 -15 5 -6 -5z"/>
<path d="M3605 2040 c-16 -7 -14 -8 12 -7 17 1 29 5 26 10 -5 9 -12 8 -38 -3z"/>
<path d="M3665 2040 c3 -5 13 -10 21 -10 8 0 12 5 9 10 -3 6 -13 10 -21 10 -8
0 -12 -4 -9 -10z"/>
<path d="M390 1748 c0 -4 9 -8 20 -8 11 0 20 -4 20 -8 0 -5 12 -14 26 -20 14
-7 23 -16 20 -20 -3 -5 -1 -22 4 -38 7 -23 8 -16 7 35 l-2 64 -47 2 c-27 1
-48 -2 -48 -7z"/>
<path d="M785 1744 c-53 -27 -121 -103 -126 -141 -1 -5 -4 -14 -6 -21 -3 -6 5
-21 18 -33 23 -19 23 -20 2 -14 -12 3 -24 1 -28 -5 -12 -20 4 -58 28 -66 20
-6 20 -8 4 -13 -17 -6 -17 -8 2 -33 12 -14 21 -30 21 -34 0 -4 -6 1 -14 12 -8
10 -17 16 -20 13 -4 -3 11 -24 31 -46 21 -22 32 -32 25 -22 -8 10 -11 22 -8
28 4 6 2 21 -5 33 -7 12 -12 55 -11 95 0 40 -4 76 -10 79 -6 4 -5 9 3 14 10 7
10 11 -1 24 -11 14 -11 16 2 11 9 -4 22 8 36 34 31 55 73 82 141 91 l56 7 -55
2 c-33 0 -67 -5 -85 -15z"/>
<path d="M1929 1742 c34 -16 70 -70 84 -123 13 -47 16 -11 5 50 -10 52 -16 65
-39 77 -16 8 -41 14 -56 14 l-28 0 34 -18z"/>
<path d="M2359 1732 c-57 -37 -96 -83 -108 -130 -24 -96 -24 -92 9 -92 16 0
30 5 30 10 0 6 -4 10 -10 10 -5 0 -10 9 -10 21 0 12 4 17 11 14 6 -4 9 -1 8 6
-5 26 52 128 84 151 24 17 46 23 89 23 72 0 103 -22 142 -99 78 -154 -3 -366
-138 -366 -75 0 -146 57 -162 129 -3 14 -8 33 -11 41 -4 8 -5 21 -4 28 1 6 -3
12 -9 12 -5 0 -10 -4 -10 -10 0 -5 -7 -7 -15 -3 -13 4 -15 0 -11 -24 21 -116
158 -212 263 -184 49 13 116 63 141 104 46 75 50 181 12 258 -21 41 -89 105
-126 119 -52 20 -127 12 -175 -18z"/>
<path d="M3310 1752 c-22 -3 -34 -23 -97 -169 -40 -92 -71 -168 -69 -170 2 -2
32 62 67 142 35 80 67 145 71 145 7 0 13 -197 9 -257 -1 -11 3 -24 8 -28 6 -3
11 -11 11 -16 0 -6 -4 -7 -10 -4 -5 3 -10 2 -10 -4 0 -15 20 -25 30 -15 5 5
11 83 13 174 5 152 6 165 26 181 35 29 31 31 -49 21z"/>
<path d="M3580 1752 c0 -4 13 -13 29 -20 29 -13 61 -8 61 10 0 7 29 9 79 6 94
-5 125 -22 152 -81 l19 -42 -1 35 c-1 19 -4 48 -8 64 l-6 30 -113 4 c-76 3
-117 0 -127 -8 -10 -8 -24 -8 -49 -1 -20 5 -36 6 -36 3z"/>
<path d="M146 1726 c-3 -11 -5 -39 -5 -61 l1 -40 9 32 c5 17 26 45 46 62 l36
30 -41 -1 c-32 0 -41 -4 -46 -22z"/>
<path d="M303 1735 c-9 -9 -9 -16 -2 -20 5 -4 6 -12 2 -18 -13 -18 -9 -109 6
-136 7 -13 9 -21 3 -17 -20 12 -20 -47 0 -78 l20 -31 -6 28 c-4 15 -2 27 3 27
5 0 9 58 9 130 0 131 -6 149 -35 115z"/>
<path d="M1752 1700 c-7 -11 -17 -19 -23 -17 -6 1 -17 -8 -26 -20 -13 -20 -13
-21 5 -16 19 4 68 61 60 68 -2 2 -9 -5 -16 -15z"/>
<path d="M2904 1545 c0 -82 2 -115 3 -72 2 43 2 110 0 150 -1 40 -3 5 -3 -78z"/>
<path d="M3645 1660 c3 -5 8 -10 11 -10 2 0 4 5 4 10 0 6 -5 10 -11 10 -5 0
-7 -4 -4 -10z"/>
<path d="M3820 1586 c0 -7 -10 -25 -21 -40 -19 -24 -27 -27 -75 -25 -30 2 -59
-2 -65 -8 -6 -6 8 -8 44 -5 65 5 94 -8 112 -51 14 -30 14 -28 15 56 0 48 -2
87 -5 87 -3 0 -5 -6 -5 -14z"/>
<path d="M1670 1499 c0 -5 5 -7 10 -4 6 3 10 8 10 11 0 2 -4 4 -10 4 -5 0 -10
-5 -10 -11z"/>
<path d="M3630 1484 c0 -10 31 -36 37 -31 3 3 -2 13 -10 22 -16 15 -27 19 -27
9z"/>
<path d="M3629 1450 c0 -3 -2 -34 -5 -70 -4 -47 -11 -70 -25 -82 -10 -9 -19
-19 -19 -22 0 -9 328 -7 333 2 3 4 7 34 11 67 l6 60 -22 -45 c-31 -60 -71 -80
-164 -80 l-72 0 -4 70 c-2 49 -9 75 -21 87 -9 10 -17 15 -18 13z"/>
<path d="M2027 1406 c-5 -15 -6 -31 -3 -34 8 -8 18 25 14 45 -3 13 -6 10 -11
-11z"/>
<path d="M2010 1351 c0 -6 5 -13 10 -16 6 -3 10 1 10 9 0 9 -4 16 -10 16 -5 0
-10 -4 -10 -9z"/>
<path d="M1725 1340 c3 -5 8 -10 11 -10 2 0 4 5 4 10 0 6 -5 10 -11 10 -5 0
-7 -4 -4 -10z"/>
<path d="M1990 1327 c0 -10 8 -17 18 -17 9 0 13 4 7 8 -5 4 -13 11 -17 16 -5
5 -8 2 -8 -7z"/>
<path d="M2901 1328 c-1 -9 -10 -23 -22 -31 -19 -14 -18 -15 26 -19 35 -2 42
-1 31 8 -9 6 -20 22 -25 35 -7 16 -10 19 -10 7z"/>
<path d="M3320 1301 c0 -5 7 -12 16 -15 14 -5 15 -4 4 9 -14 17 -20 19 -20 6z"/>
<path d="M1935 1280 c-3 -5 -2 -10 4 -10 5 0 13 5 16 10 3 6 2 10 -4 10 -5 0
-13 -4 -16 -10z"/>
</g>
</svg>
